<?xml version="1.0" encoding="utf-8"?>
<!-- Generator: Adobe Illustrator 23.0.2, SVG Export Plug-In . SVG Version: 6.00 Build 0)  -->
<svg version="1.1" id="Laag_1" xmlns="http://www.w3.org/2000/svg" xmlns:xlink="http://www.w3.org/1999/xlink" x="0px" y="0px"
	 viewBox="0 0 141.73 141.73" style="enable-background:new 0 0 141.73 141.73;" xml:space="preserve">
<style type="text/css">
	.st0{fill:#FFFFFF;}
	.st1{fill:#883D8F;}
</style>
<g id="dropdown_sign" transform="translate(-653.5 -703)">
	<circle id="Ellipse_1" class="st0" cx="724.37" cy="774.37" r="29.5"/>
	<path id="Path_7" class="st1" d="M722.8,777.53l-12.56-12.56c-0.86-0.86-0.87-2.26-0.01-3.12c0,0,0.01-0.01,0.01-0.01l2.09-2.09
		c0.86-0.86,2.26-0.87,3.12-0.01c0,0,0.01,0.01,0.01,0.01l8.9,8.9l8.9-8.9c0.86-0.86,2.26-0.87,3.12-0.01c0,0,0.01,0.01,0.01,0.01
		l2.1,2.08c0.86,0.86,0.87,2.26,0.01,3.12c0,0-0.01,0.01-0.01,0.01l-12.56,12.56c-0.86,0.87-2.26,0.88-3.13,0.02
		C722.8,777.54,722.8,777.54,722.8,777.53L722.8,777.53z M725.94,795.26l12.56-12.56c0.86-0.86,0.87-2.26,0.01-3.12
		c0,0-0.01-0.01-0.01-0.01l-2.09-2.09c-0.86-0.86-2.26-0.87-3.12-0.01c0,0-0.01,0.01-0.01,0.01l-8.91,8.89l-8.9-8.9
		c-0.86-0.86-2.26-0.87-3.12-0.01c0,0-0.01,0.01-0.01,0.01l-2.1,2.09c-0.86,0.86-0.87,2.26-0.01,3.12c0,0,0.01,0.01,0.01,0.01
		l12.56,12.56c0.86,0.87,2.26,0.88,3.13,0.03C725.92,795.28,725.93,795.27,725.94,795.26L725.94,795.26z"/>
</g>
</svg>
