<?xml version="1.0" encoding="utf-8"?>
<!-- Generator: Adobe Illustrator 23.0.2, SVG Export Plug-In . SVG Version: 6.00 Build 0)  -->
<svg version="1.1" xmlns="http://www.w3.org/2000/svg" xmlns:xlink="http://www.w3.org/1999/xlink" x="0px" y="0px"
	 viewBox="0 0 141.7 141.7" style="enable-background:new 0 0 141.7 141.7;" xml:space="preserve">
<style type="text/css">
	.st0{fill:#FFFFFF;}
	.st1{fill:#8A3B94;}
</style>
<g id="Laag_1">
</g>
<g id="Facebook_icon">
	<rect x="30.2" y="3.4" class="st0" width="95.6" height="138.3"/>
	<path id="Path_1" class="st1" d="M141.7,15.2v111.4c0,8.4-6.8,15.2-15.2,15.2l0,0h-27V85.7h19.2l2.8-21.4H99.6V50.6
		c0-6.2,1.7-10.4,10.6-10.4h11.3V21.1c-5.5-0.6-11-0.9-16.5-0.9c-16.3,0-27.5,10-27.5,28.3v15.8H58.2v21.4h19.3v56H15.2
		c-8.4,0-15.2-6.8-15.2-15.2l0,0V15.2C0,6.8,6.8,0,15.2,0l0,0h111.4C134.9,0,141.7,6.8,141.7,15.2z"/>
</g>
</svg>
