<?xml version="1.0" encoding="utf-8"?>
<!-- Generator: Adobe Illustrator 23.0.2, SVG Export Plug-In . SVG Version: 6.00 Build 0)  -->
<svg version="1.1" xmlns="http://www.w3.org/2000/svg" xmlns:xlink="http://www.w3.org/1999/xlink" x="0px" y="0px"
	 viewBox="0 0 141.73 141.73" style="enable-background:new 0 0 141.73 141.73;" xml:space="preserve">
<style type="text/css">
	.st0{fill:#FFFFFF;}
	.st1{fill:#883D8F;}
</style>
<g id="Laag_1">
</g>
<g id="Facebook_icon">
	<path id="Rectangle_3" class="st0" d="M68.84,56.87h3.27c6.89,0,12.47,5.59,12.47,12.47v3.27c0,6.89-5.59,12.47-12.47,12.47h-3.27
		c-6.89,0-12.47-5.59-12.47-12.47v-3.27C56.37,62.45,61.95,56.87,68.84,56.87z"/>
</g>
<g id="Instragram_icon">
	<path id="Rectangle_7" class="st0" d="M71.04,0.06L71.04,0.06c39.12,0,70.84,31.71,70.84,70.84l0,0
		c0,39.12-31.71,70.84-70.84,70.84l0,0c-39.12,0-70.84-31.71-70.84-70.84l0,0C0.2,31.77,31.91,0.06,71.04,0.06z"/>
	<path id="Path_6" class="st1" d="M70.75,34.53c-20.07,0.01-36.33,16.28-36.33,36.35c0.01,20.07,16.28,36.33,36.35,36.33
		c20.06-0.01,36.33-16.27,36.33-36.34c0.03-20.04-16.2-36.31-36.25-36.34C70.82,34.53,70.79,34.53,70.75,34.53z M70.75,94.49
		c-13.05,0-23.62-10.58-23.62-23.62c0-13.05,10.58-23.62,23.62-23.62c13.05,0,23.62,10.58,23.62,23.62l0,0
		C94.35,83.9,83.79,94.46,70.75,94.49z M117.05,33.04c0.01,4.68-3.78,8.48-8.46,8.48c-4.68,0.01-8.48-3.78-8.48-8.46
		c-0.01-4.68,3.78-8.48,8.46-8.48c0,0,0.01,0,0.01,0c4.67-0.01,8.46,3.76,8.47,8.43C117.05,33.02,117.05,33.03,117.05,33.04z
		 M141.11,41.64c0.23-11.02-3.88-21.68-11.45-29.69C121.64,4.4,110.99,0.29,99.97,0.5c-11.7-0.67-46.77-0.67-58.47,0
		C30.49,0.28,19.83,4.38,11.81,11.92C4.25,19.94,0.14,30.6,0.36,41.62c-0.67,11.7-0.67,46.77,0,58.47
		c-0.23,11.02,3.88,21.68,11.45,29.69c8.03,7.54,18.68,11.65,29.69,11.45c11.7,0.67,46.77,0.67,58.47,0
		c11.02,0.23,21.68-3.88,29.69-11.45c7.54-8.03,11.65-18.68,11.45-29.69C141.78,88.39,141.78,53.34,141.11,41.64L141.11,41.64z
		 M125.99,112.64c-2.43,6.16-7.31,11.04-13.47,13.47c-9.33,3.7-31.46,2.85-41.78,2.85c-10.31,0-32.48,0.82-41.78-2.85
		c-6.16-2.43-11.03-7.31-13.46-13.47c-3.7-9.33-2.85-31.46-2.85-41.78s-0.83-32.47,2.85-41.75c2.42-6.17,7.3-11.06,13.46-13.49
		c9.33-3.7,31.46-2.85,41.78-2.85s32.48-0.82,41.78,2.85c6.17,2.44,11.05,7.32,13.47,13.49c3.7,9.33,2.85,31.46,2.85,41.78
		S129.7,103.34,125.99,112.64L125.99,112.64z"/>
</g>
</svg>
