<?xml version="1.0" encoding="utf-8"?>
<!-- Generator: Adobe Illustrator 23.0.2, SVG Export Plug-In . SVG Version: 6.00 Build 0)  -->
<svg version="1.1" xmlns="http://www.w3.org/2000/svg" xmlns:xlink="http://www.w3.org/1999/xlink" x="0px" y="0px"
	 viewBox="0 0 141.7 141.7" style="enable-background:new 0 0 141.7 141.7;" xml:space="preserve">
<style type="text/css">
	.st0{fill:#FFFFFF;}
	.st1{fill:#8A3B94;}
</style>
<g id="Laag_1">
	<g id="Facebook_icon">
	</g>
	<g id="Instragram_icon">
	</g>
	<g id="LinkedIn_icon">
	</g>
</g>
<g id="LinkedIn_icon_1_">
	<path id="Rectangle_5" class="st0" d="M70.9,0L70.9,0c39.1,0,70.9,31.7,70.9,70.9l0,0c0,39.1-31.7,70.9-70.9,70.9l0,0
		C31.7,141.7,0,110,0,70.9l0,0C0,31.7,31.7,0,70.9,0z"/>
	<path id="Path_4" class="st1" d="M131.6,0H10.1C4.5,0,0,4.6,0,10.2v121.3c0,5.6,4.5,10.2,10.1,10.2h121.5
		c5.6-0.1,10.1-4.6,10.1-10.2V10.2C141.7,4.6,137.2,0.1,131.6,0z M42.8,121.5h-21V53.8h21L42.8,121.5L42.8,121.5z M32.3,44.6
		c-6.7,0-12.2-5.5-12.2-12.2c0-6.7,5.5-12.2,12.2-12.2s12.2,5.5,12.2,12.2l0,0C44.5,39.2,39,44.6,32.3,44.6z M121.6,121.5h-21V88.6
		c0-7.8-0.2-17.9-10.9-17.9C78.7,70.6,77,79.2,77,88v33.5H56V53.8h20.2v9.2h0.3c4.1-7,11.8-11.2,19.9-10.9c21.3,0,25.2,14,25.2,32.2
		L121.6,121.5z"/>
</g>
</svg>
