<?xml version="1.0" encoding="utf-8"?>
<!-- Generator: Adobe Illustrator 23.0.2, SVG Export Plug-In . SVG Version: 6.00 Build 0)  -->
<svg version="1.1" xmlns="http://www.w3.org/2000/svg" xmlns:xlink="http://www.w3.org/1999/xlink" x="0px" y="0px"
	 viewBox="0 0 141.73 141.73" style="enable-background:new 0 0 141.73 141.73;" xml:space="preserve">
<style type="text/css">
	.st0{fill:#FFFFFF;}
	.st1{fill:#883D8F;}
</style>
<g id="Laag_1">
</g>
<g id="Facebook_icon">
</g>
<g id="Instragram_icon">
</g>
<g id="LinkedIn_icon">
</g>
<g id="Twitter_icon">
	<path id="Rectangle_6" class="st0" d="M70.87,0L70.87,0c39.14,0,70.87,31.73,70.87,70.87l0,0c0,39.14-31.73,70.87-70.87,70.87l0,0
		C31.73,141.73,0,110,0,70.87l0,0C0,31.73,31.73,0,70.87,0z"/>
	<path id="Path_5" class="st1" d="M126.55,0H15.19C6.8,0,0,6.8,0,15.19v111.36c0,8.39,6.8,15.19,15.19,15.19h111.36
		c8.39,0,15.19-6.8,15.19-15.19V15.19C141.73,6.8,134.93,0,126.55,0z M111.08,50.24c0.07,0.88,0.07,1.8,0.07,2.69
		c0.22,32.38-25.85,58.81-58.23,59.03c-0.27,0-0.54,0-0.81,0c-11.29,0.03-22.35-3.2-31.86-9.3c1.66,0.18,3.33,0.26,5,0.25
		c9.33,0.02,18.4-3.1,25.75-8.86c-8.87-0.16-16.66-5.95-19.39-14.39c3.11,0.53,6.31,0.4,9.37-0.39
		C31.29,77.3,24.34,68.77,24.36,58.9v-0.25c2.87,1.61,6.08,2.51,9.37,2.63c-5.78-3.84-9.25-10.33-9.24-17.27
		c-0.02-3.68,0.95-7.3,2.82-10.47C37.84,46.5,53.39,54.39,70.08,55.23c-2.6-11.18,4.35-22.36,15.54-24.96
		c7.22-1.68,14.79,0.61,19.86,6.01c4.65-0.88,9.1-2.57,13.17-4.98c-1.54,4.78-4.77,8.84-9.09,11.42c4.13-0.47,8.16-1.56,11.96-3.23
		C118.68,43.65,115.15,47.29,111.08,50.24z"/>
</g>
</svg>
